<svg xmlns="http://www.w3.org/2000/svg" width="16.523" height="24" viewBox="0 0 16.523 24">
  <g id="Page_1" data-name="Page 1" transform="translate(0 0)">
    <path id="Fill_1" data-name="Fill 1" d="M10.1,16.714a.527.527,0,0,1-.526-.526V10.754a.519.519,0,0,1,.379-.5H6.57a.52.52,0,0,1,.379.5v5.434a.527.527,0,0,1-1.053,0V10.754a.52.52,0,0,1,.379-.5H6.1A1.717,1.717,0,0,1,4.45,8.621l-.4-5.853L.939,6.663a.527.527,0,0,1-.412.2A.534.534,0,0,1,.2,6.746.528.528,0,0,1,.115,6L4.083,1.033a1.562,1.562,0,0,1,.305-.49A1.751,1.751,0,0,1,5.675,0h5.174a1.747,1.747,0,0,1,1.28.538,1.555,1.555,0,0,1,.305.486l3.973,4.981a.526.526,0,0,1-.084.741.527.527,0,0,1-.74-.084l-3.109-3.9-.4,5.854a1.723,1.723,0,0,1-1.65,1.639h-.175a.52.52,0,0,1,.379.5v5.434A.527.527,0,0,1,10.1,16.714ZM5.675,1.054a.718.718,0,0,0-.383.117c-.006.012-.011.024-.016.036a.308.308,0,0,1-.037.068l-.194.243c0,.012-.005.023-.008.034a.257.257,0,0,0-.011.087L5.5,8.545a.681.681,0,0,0,.6.66h4.323a.687.687,0,0,0,.6-.664l.474-6.9a.289.289,0,0,0-.013-.1c0-.011-.005-.021-.008-.032l-.191-.238a.366.366,0,0,1-.039-.074l-.013-.029a.7.7,0,0,0-.383-.117Z" transform="translate(0 7.286)" fill="#22c3ca"/>
    <path id="Fill_4" data-name="Fill 4" d="M2.683,5.368A2.684,2.684,0,1,1,5.368,2.683,2.687,2.687,0,0,1,2.683,5.368Zm0-4.314A1.63,1.63,0,1,0,4.314,2.683,1.631,1.631,0,0,0,2.683,1.054Z" transform="translate(5.577 0)" fill="#22c3ca"/>
  </g>
</svg>
