<svg xmlns="http://www.w3.org/2000/svg" width="32" height="32" viewBox="0 0 32 32">
  <path id="Search_Icon" data-name="Search Icon" d="M30.75,31.789,22.833,24.01a14.025,14.025,0,0,1-8.967,3.245A13.765,13.765,0,0,1,0,13.633,13.774,13.774,0,0,1,13.869,0,13.771,13.771,0,0,1,27.74,13.63,13.431,13.431,0,0,1,23.9,23.02l7.889,7.752a.711.711,0,0,1,0,1.017.739.739,0,0,1-1.035,0ZM1.465,13.633a12.311,12.311,0,0,0,12.4,12.184A12.315,12.315,0,0,0,26.276,13.63,12.318,12.318,0,0,0,13.869,1.44,12.319,12.319,0,0,0,1.465,13.633Zm2.729-.007a9.6,9.6,0,0,1,9.675-9.509V5.557a8.15,8.15,0,0,0-8.21,8.069Z" fill="#22c3ca"/>
</svg>
