<svg xmlns="http://www.w3.org/2000/svg" width="16.5" height="16.5" viewBox="0 0 16.5 16.5">
  <path id="Compare_Icon" data-name="Compare Icon" d="M8,16a8,8,0,1,1,8-8A8.009,8.009,0,0,1,8,16ZM8,.356A7.645,7.645,0,1,0,15.645,8,7.653,7.653,0,0,0,8,.356ZM4.256,11.921a.175.175,0,0,1-.125-.052.175.175,0,0,1,0-.251L7.163,8.585H5.486a.178.178,0,1,1,0-.356H7.593a.178.178,0,0,1,.177.177v2.107a.178.178,0,1,1-.355,0V8.835L4.382,11.869A.177.177,0,0,1,4.256,11.921Zm6.258-4.151H8.407a.178.178,0,0,1-.177-.178V5.486a.178.178,0,0,1,.356,0V7.163l3.032-3.032a.178.178,0,1,1,.251.251L8.836,7.415h1.678a.178.178,0,0,1,0,.356Z" transform="translate(0.25 0.25)" fill="#22c3ca" stroke="#22c3ca" stroke-miterlimit="10" stroke-width="0.5"/>
</svg>
