<svg xmlns="http://www.w3.org/2000/svg" width="16" height="16" viewBox="0 0 16 16">
  <g id="Star_Copy_4" data-name="Star Copy 4" transform="translate(0)" fill="none" stroke-miterlimit="10">
    <path d="M8,12.932,3.056,16,4.3,10.108l-4.3-4,5.715-.574L8,0l2.285,5.537L16,6.111l-4.3,4L12.944,16Z" stroke="none"/>
    <path d="M 11.48101806640625 13.91532897949219 L 10.60190010070801 9.7606201171875 L 13.69757652282715 6.885223388671875 L 9.589280128479004 6.472569942474365 L 8 2.621424198150635 L 6.410719871520996 6.472569942474365 L 2.302423000335693 6.885223388671875 L 5.398099899291992 9.7606201171875 L 4.51898193359375 13.91532897949219 L 8 11.75561046600342 L 11.48101806640625 13.91532897949219 M 12.94427013397217 16 L 8 12.93243980407715 L 3.055730104446411 16 L 4.302499771118164 10.1077995300293 L 0 6.111460208892822 L 5.71481990814209 5.537439823150635 L 8 0 L 10.28518009185791 5.537439823150635 L 16 6.111460208892822 L 11.69750022888184 10.1077995300293 L 12.94427013397217 16 Z" stroke="none" fill="#22c3ca"/>
  </g>
</svg>
