<svg xmlns="http://www.w3.org/2000/svg" width="21.001" height="24" viewBox="0 0 21.001 24">
  <path id="Mail_Icon" data-name="Mail Icon" d="M19.216,24H1.784a1.714,1.714,0,0,1-.486-.077l-.013,0c-.025-.008-.049-.015-.072-.023a1.783,1.783,0,0,1-.8-.571l-.016-.019-.016-.019a1.809,1.809,0,0,1-.255-.459l0-.005A1.851,1.851,0,0,1,0,22.181V9.22a.492.492,0,0,1,.169-.373L10.231.117a.472.472,0,0,1,.623,0l9.979,8.731A.494.494,0,0,1,21,9.22V22.181a1.884,1.884,0,0,1-.375,1.1c-.012.013-.023.027-.034.041a1.778,1.778,0,0,1-.8.569c-.022.008-.045.015-.067.022l-.021.006A1.726,1.726,0,0,1,19.216,24ZM10.5,14.272,7.882,16.655a.156.156,0,0,0-.011.022.118.118,0,0,1-.017.03.476.476,0,0,1-.146.108L1.184,22.748l0,0a.83.83,0,0,0,.26.19l.008.005a.794.794,0,0,0,.329.073H19.216a.809.809,0,0,0,.326-.069.23.23,0,0,0,.045-.03.307.307,0,0,1,.033-.024l.007,0a.783.783,0,0,0,.184-.137l.005-.008ZM20.04,11.09l-5.8,5.275,5.8,5.276Zm-19.08,0V21.64l5.8-5.275Zm9.58-9.957h0L.96,9.446v.333L7.48,15.71l2.7-2.458a.475.475,0,0,1,.639,0l2.7,2.457,6.52-5.931V9.445l-9.5-8.312Z" fill="#35424b"/>
</svg>
