<svg id="Mob_Icon" data-name="Mob Icon" xmlns="http://www.w3.org/2000/svg" width="16" height="24" viewBox="0 0 16 24">
  <path id="Fill_1" data-name="Fill 1" d="M15.467,24H.533A.528.528,0,0,1,0,23.479V.521A.528.528,0,0,1,.533,0H15.467A.528.528,0,0,1,16,.521V23.479A.528.528,0,0,1,15.467,24ZM1.066,1.044V22.956H14.933V1.044Z" fill="#35424b"/>
  <path id="Fill_3" data-name="Fill 3" d="M11.2,14.259H.533A.528.528,0,0,1,0,13.738V.522A.528.528,0,0,1,.533,0H11.2a.529.529,0,0,1,.534.522V13.738A.528.528,0,0,1,11.2,14.259ZM1.066,1.043V13.215h9.6V1.043Z" transform="translate(2.134 3.479)" fill="#35424b"/>
  <path id="Fill_4" data-name="Fill 4" d="M2.533,1.239A1.254,1.254,0,0,1,1.266,2.478,1.252,1.252,0,0,1,0,1.239,1.252,1.252,0,0,1,1.266,0,1.254,1.254,0,0,1,2.533,1.239" transform="translate(6.734 18.826)" fill="#35424b"/>
</svg>
