<svg xmlns="http://www.w3.org/2000/svg" width="40" height="40" viewBox="0 0 40 40">
  <path id="Instagram_Icon" data-name="Instagram Icon" d="M20,40A20,20,0,0,1,5.858,5.859,20,20,0,1,1,34.141,34.142,19.868,19.868,0,0,1,20,40ZM14.27,7.5A6.778,6.778,0,0,0,7.5,14.27V25.729A6.778,6.778,0,0,0,14.27,32.5H25.729A6.778,6.778,0,0,0,32.5,25.729V14.27A6.778,6.778,0,0,0,25.729,7.5ZM20,26.25A6.25,6.25,0,1,1,26.25,20,6.257,6.257,0,0,1,20,26.25Zm0-10.417A4.167,4.167,0,1,0,24.167,20,4.171,4.171,0,0,0,20,15.834Zm6.641-1.041a1.433,1.433,0,1,1,1.432-1.433A1.434,1.434,0,0,1,26.641,14.792Z" transform="translate(0 0)" fill="#22c3ca"/>
</svg>
