<svg xmlns="http://www.w3.org/2000/svg" width="16" height="19" viewBox="0 0 16 19">
  <path id="Location_Icon" data-name="Location Icon" d="M8,19a.411.411,0,0,1-.266-.1C7.418,18.634,0,12.286,0,7.969a8,8,0,0,1,16,0C16,12.307,8.581,18.635,8.266,18.9A.413.413,0,0,1,8,19ZM8,1A6.994,6.994,0,0,0,1,7.972c0,3.439,5.831,8.79,7,9.827,1.168-1.036,7-6.376,7-9.827A6.994,6.994,0,0,0,8,1Zm.008,10.953A3.977,3.977,0,1,1,12,7.977,3.989,3.989,0,0,1,8.008,11.953ZM8,5a2.988,2.988,0,1,0,3,2.988A3,3,0,0,0,8,5Z" transform="translate(0)" fill="#35424b"/>
</svg>
