<svg xmlns="http://www.w3.org/2000/svg" width="40" height="40" viewBox="0 0 40 40">
  <path id="Page_1" data-name="Page 1" d="M20,40A20,20,0,0,1,5.858,5.859,20,20,0,1,1,34.141,34.142,19.869,19.869,0,0,1,20,40ZM5.341,13.138c-.647,0-1.048.109-1.193.325a.5.5,0,0,0,0,.473l.013.034c.366.709.73,1.434,1.083,2.134.84,1.669,1.708,3.394,2.656,5.037a27.523,27.523,0,0,0,3.088,4.3,10.576,10.576,0,0,0,6.52,3.777,9.785,9.785,0,0,0,1.423.089c.391,0,.788-.014,1.173-.028.2-.007.405-.014.606-.02a.9.9,0,0,0,.911-.886c.015-.124.029-.248.043-.372a8.887,8.887,0,0,1,.271-1.572c.207-.688.526-1.036.95-1.036a1.6,1.6,0,0,1,.993.5,9.852,9.852,0,0,1,.8.832,10.149,10.149,0,0,0,.771.81,14.036,14.036,0,0,0,2,1.56,2.356,2.356,0,0,0,1.2.2h.146c.742.006,1.416.009,2.061.009s1.253,0,1.847-.009h.037c.4,0,1.062-.007,1.32-.379a.874.874,0,0,0,.013-.813,10.633,10.633,0,0,0-2.4-3.181c-.317-.321-.644-.642-.961-.952-.338-.332-.687-.674-1.025-1.017a1.178,1.178,0,0,1-.207-1.765c.375-.548.778-1.09,1.168-1.614.465-.626.946-1.272,1.383-1.933.515-.779.987-1.606,1.444-2.406.194-.339.394-.689.6-1.032a1.142,1.142,0,0,1,.069-.139c.092-.167.217-.4.106-.584-.138-.234-.6-.348-1.406-.348H28.114a1.163,1.163,0,0,0-1.233.825,22.346,22.346,0,0,1-3.19,5.667,5.693,5.693,0,0,1-.728.751.9.9,0,0,1-.564.255c-.257,0-.46-.185-.571-.521a4.825,4.825,0,0,1-.213-1.487c0-.859.023-1.732.047-2.577v-.007c.012-.434.025-.883.033-1.324a8.266,8.266,0,0,0-.018-.875c-.071-.834-.372-1.178-1.149-1.313a14.567,14.567,0,0,0-2.495-.215,15.532,15.532,0,0,0-2.668.236,1.735,1.735,0,0,0-1.323.983c1.522.127,1.744,1.188,1.85,2.359a10.782,10.782,0,0,1-.267,4.1c-.13.447-.386.7-.7.7a.927.927,0,0,1-.633-.32,8.785,8.785,0,0,1-1.437-1.813c-.7-1.262-1.392-2.641-2.247-4.474a1.49,1.49,0,0,0-1.519-.953h-.07c-.366.008-.767.012-1.225.012-.408,0-.823,0-1.224-.006S5.749,13.138,5.341,13.138Z" transform="translate(0 0)" fill="#22c3ca"/>
</svg>
