<svg id="Globe" xmlns="http://www.w3.org/2000/svg" width="23.084" height="27" viewBox="0 0 23.084 27">
  <path id="Fill_1" data-name="Fill 1" d="M9.952,27a1.119,1.119,0,0,1,0-2.239H12.21V23.024A13.32,13.32,0,0,1,3.9.329,1.119,1.119,0,0,1,5.489,1.91a11.095,11.095,0,0,0,0,15.688,11.1,11.1,0,0,0,15.686,0,1.119,1.119,0,1,1,1.582,1.584,13.276,13.276,0,0,1-8.307,3.842v1.737h2.26a1.119,1.119,0,1,1,0,2.239Z" fill="#22c3ca"/>
  <path id="Fill_4" data-name="Fill 4" d="M9.6,19.211a9.605,9.605,0,1,1,9.608-9.6A9.615,9.615,0,0,1,9.6,19.211Zm0-16.973a7.368,7.368,0,1,0,7.37,7.368A7.375,7.375,0,0,0,9.6,2.237Z" transform="translate(3.375)" fill="#22c3ca"/>
</svg>
