<svg id="Phone_Icon" data-name="Phone Icon" xmlns="http://www.w3.org/2000/svg" width="32" height="32" viewBox="0 0 32 32">
  <path id="Fill_1" data-name="Fill 1" d="M16,32A16,16,0,1,1,32,16,16.018,16.018,0,0,1,16,32ZM16,.711A15.289,15.289,0,1,0,31.288,16,15.307,15.307,0,0,0,16,.711Z" fill="#22c3ca"/>
  <g id="Group_11" data-name="Group 11" transform="translate(7.822 7.822)">
    <path id="Fill_3" data-name="Fill 3" d="M12.676,15.809a12.625,12.625,0,0,1-8.731-3.9A12.608,12.608,0,0,1,0,2.9l0-.118.073-.092A8.215,8.215,0,0,1,3.631.058.935.935,0,0,1,3.967,0c.379,0,1,.2,1.13.566.383,1.06.869,2.45,1.225,3.8A1.388,1.388,0,0,1,5.952,5.6l-1.258.8a.315.315,0,0,0-.132.218.982.982,0,0,0,.205.723A18.031,18.031,0,0,0,6.479,9.339a17.854,17.854,0,0,0,2,1.7,1.078,1.078,0,0,0,.611.21.37.37,0,0,0,.327-.133l.8-1.264c.247-.385,1.011-.39,1.019-.39a.984.984,0,0,1,.2.018,17.6,17.6,0,0,1,3.838,1.238,1.378,1.378,0,0,1,.482,1.457A8.3,8.3,0,0,1,13.87,15.07a8.674,8.674,0,0,1-.752.661l-.093.073-.348.005ZM3.967.711A.273.273,0,0,0,3.89.719,7.638,7.638,0,0,0,1.242,2.443a7.92,7.92,0,0,0-.53.594A11.854,11.854,0,0,0,4.4,11.36l.052.053A11.906,11.906,0,0,0,12.676,15.1h.1a7.452,7.452,0,0,0,.6-.532,7.593,7.593,0,0,0,1.717-2.643.891.891,0,0,0-.154-.579,17.168,17.168,0,0,0-3.657-1.165h-.024a1.021,1.021,0,0,0-.47.1l-.765,1.22a1.085,1.085,0,0,1-.949.458,1.725,1.725,0,0,1-1.012-.338,18.554,18.554,0,0,1-2.08-1.773A18.748,18.748,0,0,1,4.192,7.753a1.681,1.681,0,0,1-.328-1.279,1.01,1.01,0,0,1,.452-.683l1.256-.8a1.455,1.455,0,0,0,.062-.452c-.342-1.3-.823-2.676-1.2-3.734h0A.426.426,0,0,1,4.347.787,1.4,1.4,0,0,0,3.967.711Z" transform="translate(0.119 0.472)" fill="#22c3ca"/>
    <path id="Fill_5" data-name="Fill 5" d="M7.942,8.3a.356.356,0,0,1-.356-.356A7.239,7.239,0,0,0,.356.711.356.356,0,0,1,.356,0,7.95,7.95,0,0,1,8.3,7.94a.356.356,0,0,1-.356.356" transform="translate(7.938 0.076)" fill="#22c3ca"/>
    <path id="Fill_7" data-name="Fill 7" d="M5.714,6.068a.356.356,0,0,1-.356-.356,5.008,5.008,0,0,0-5-5A.356.356,0,0,1,.356,0,5.719,5.719,0,0,1,6.069,5.712a.356.356,0,0,1-.356.356" transform="translate(7.937 2.304)" fill="#22c3ca"/>
    <path id="Fill_9" data-name="Fill 9" d="M3.366,3.721a.356.356,0,0,1-.356-.356A2.657,2.657,0,0,0,.356.711.356.356,0,0,1,.356,0,3.37,3.37,0,0,1,3.722,3.365a.356.356,0,0,1-.356.356" transform="translate(7.937 4.651)" fill="#22c3ca"/>
  </g>
</svg>
