<svg width="0" height="0" class="hidden">
  <symbol xmlns="http://www.w3.org/2000/svg" viewBox="0 0 24 24" id="calendar">
    <path d="M24 24H0V1.5h6V0h1.5v1.5h9V0H18v1.5h6V24zM1.5 3v19.5h21V3H18v3h-1.5V3h-9v3H6V3zm12 16.514h-3v-3h3v3zm-4.5 0H6v-3h3v3zm9-4.5h-3v-3h3v3zm-4.5 0h-3v-3h3v3zm-4.5 0H6v-3h3v3zm9-4.5h-3v-3h3v3zm-4.5 0h-3v-3h3v3zm-4.5 0H6v-3h3v3z" fill="#22c3ca"></path>
  </symbol>
  <symbol xmlns="http://www.w3.org/2000/svg" viewBox="0 0 15 12" id="done">
    <path d="M5 12L0 7l2-2 3 3 8-8 2 2z" fill="#22c3ca"></path>
  </symbol>
  <symbol xmlns="http://www.w3.org/2000/svg" viewBox="0 0 11.901 11.901" id="krest">
    <path d="M7.365 5.951l4.242-4.242A1 1 0 1010.193.294L5.951 4.536 1.709.294A1 1 0 10.294 1.709l4.242 4.242-4.242 4.242a1 1 0 101.414 1.414l4.243-4.242 4.242 4.242a1 1 0 101.414-1.414z" fill="#22c3ca"></path>
  </symbol>
  <symbol xmlns="http://www.w3.org/2000/svg" viewBox="0 0 32 32" id="minus">
    <g transform="translate(-1176 -464)">
      <g transform="translate(1176 464)" fill="none" stroke="#22c3ca" stroke-miterlimit="10" stroke-width="2">
        <circle cx="16" cy="16" r="16" stroke="none"></circle>
        <circle cx="16" cy="16" r="15"></circle>
      </g>
      <rect width="2" height="16" rx="1" transform="rotate(90 360.5 839.5)" fill="#22c3ca"></rect>
    </g>
  </symbol>
  <symbol xmlns="http://www.w3.org/2000/svg" viewBox="0 0 32 32" id="plus">
    <g transform="translate(-1216 -512)">
      <g transform="translate(1216 512)" fill="none" stroke="#22c3ca" stroke-miterlimit="10" stroke-width="2">
        <circle cx="16" cy="16" r="16" stroke="none"></circle>
        <circle cx="16" cy="16" r="15"></circle>
      </g>
      <rect width="2" height="16" rx="1" transform="translate(1231 520)" fill="#22c3ca"></rect>
      <rect width="2" height="16" rx="1" transform="rotate(90 356.5 883.5)" fill="#22c3ca"></rect>
    </g>
  </symbol>
  <symbol xmlns="http://www.w3.org/2000/svg" viewBox="0 0 16.523 24" id="people">
    <path d="M10.1 24a.527.527 0 01-.526-.526V18.04a.519.519 0 01.379-.5H6.57a.52.52 0 01.379.5v5.434a.527.527 0 01-1.053 0V18.04a.52.52 0 01.379-.5H6.1a1.717 1.717 0 01-1.65-1.633l-.4-5.853-3.111 3.895a.527.527 0 01-.412.2.534.534 0 01-.327-.117.528.528 0 01-.085-.746l3.968-4.967a1.562 1.562 0 01.305-.49 1.751 1.751 0 011.287-.543h5.174a1.747 1.747 0 011.28.538 1.555 1.555 0 01.305.486l3.973 4.981a.526.526 0 01-.084.741.527.527 0 01-.74-.084l-3.109-3.9-.4 5.854a1.723 1.723 0 01-1.65 1.639h-.175a.52.52 0 01.379.5v5.434A.527.527 0 0110.1 24zM5.675 8.34a.718.718 0 00-.383.117l-.016.036a.308.308 0 01-.037.068l-.194.243c0 .012-.005.023-.008.034a.257.257 0 00-.011.087l.474 6.906a.681.681 0 00.6.66h4.323a.687.687 0 00.6-.664l.474-6.9a.289.289 0 00-.013-.1c0-.011-.005-.021-.008-.032l-.191-.238a.366.366 0 01-.039-.074l-.013-.029a.7.7 0 00-.383-.117zM8.26 5.368a2.684 2.684 0 112.685-2.685A2.687 2.687 0 018.26 5.368zm0-4.314a1.63 1.63 0 101.631 1.629A1.631 1.631 0 008.26 1.054z" fill="#22c3ca"></path>
  </symbol>
  <symbol xmlns="http://www.w3.org/2000/svg" viewBox="0 0 32 32" id="search">
    <path d="M30.75 31.789l-7.917-7.779a14.025 14.025 0 01-8.967 3.245A13.765 13.765 0 010 13.633 13.774 13.774 0 0113.869 0 13.771 13.771 0 0127.74 13.63a13.431 13.431 0 01-3.84 9.39l7.889 7.752a.711.711 0 010 1.017.739.739 0 01-1.035 0zM1.465 13.633a12.311 12.311 0 0012.4 12.184A12.315 12.315 0 0026.276 13.63 12.318 12.318 0 0013.869 1.44 12.319 12.319 0 001.465 13.633zm2.729-.007a9.6 9.6 0 019.675-9.509v1.44a8.15 8.15 0 00-8.21 8.069z" fill="#22c3ca"></path>
  </symbol>
  <symbol xmlns="http://www.w3.org/2000/svg" viewBox="0 0 48 48" id="arrow-left">
    <circle cx="24" cy="24" r="24" fill="#22c3ca"></circle>
    <path d="M21.829 24.489l7.071-7.076a2 2 0 00-2.824-2.828l-8.494 8.494a2 2 0 000 2.82l8.494 8.494a2 2 0 002.824-2.829z" fill="#fff"></path>
  </symbol>
  <symbol xmlns="http://www.w3.org/2000/svg" viewBox="0 0 21.001 24" id="mail">
    <path d="M19.216 24H1.784a1.714 1.714 0 01-.486-.077h-.013l-.072-.023a1.783 1.783 0 01-.8-.571l-.016-.019-.016-.019a1.809 1.809 0 01-.255-.459v-.005A1.851 1.851 0 010 22.181V9.22a.492.492 0 01.169-.373L10.231.117a.472.472 0 01.623 0l9.979 8.731A.494.494 0 0121 9.22v12.961a1.884 1.884 0 01-.375 1.1l-.034.041a1.778 1.778 0 01-.8.569l-.067.022-.021.006a1.726 1.726 0 01-.487.081zM10.5 14.272l-2.618 2.383a.156.156 0 00-.011.022.118.118 0 01-.017.03.476.476 0 01-.146.108l-6.524 5.933a.83.83 0 00.26.19l.008.005a.794.794 0 00.329.073h17.435a.809.809 0 00.326-.069.23.23 0 00.045-.03.307.307 0 01.033-.024h.007a.783.783 0 00.184-.137l.005-.008zm9.54-3.182l-5.8 5.275 5.8 5.276zm-19.08 0v10.55l5.8-5.275zm9.58-9.957L.96 9.446v.333l6.52 5.931 2.7-2.458a.475.475 0 01.639 0l2.7 2.457 6.52-5.931v-.333l-9.5-8.312z" fill="#35424b"></path>
  </symbol>
  <symbol xmlns="http://www.w3.org/2000/svg" viewBox="0 0 16 24" id="mob">
    <path d="M15.467 24H.533A.528.528 0 010 23.479V.521A.528.528 0 01.533 0h14.934A.528.528 0 0116 .521v22.958a.528.528 0 01-.533.521zM1.066 1.044v21.912h13.867V1.044z" fill="#35424b"></path>
    <path d="M13.334 17.738H2.667a.528.528 0 01-.533-.521V4.001a.528.528 0 01.533-.522h10.667a.529.529 0 01.534.522v13.216a.528.528 0 01-.534.521zM3.2 4.522v12.172h9.6V4.522zm6.067 15.543A1.254 1.254 0 018 21.304a1.252 1.252 0 01-1.266-1.239A1.252 1.252 0 018 18.826a1.254 1.254 0 011.267 1.239" fill="#35424b"></path>
  </symbol>
  <symbol xmlns="http://www.w3.org/2000/svg" viewBox="0 0 16.5 16.5" id="icon">
    <path d="M8.25 16.25a8 8 0 118-8 8.009 8.009 0 01-8 8zm0-15.644a7.645 7.645 0 107.645 7.644A7.653 7.653 0 008.25.606zM4.506 12.171a.175.175 0 01-.125-.052.175.175 0 010-.251l3.032-3.033H5.736a.178.178 0 110-.356h2.107a.178.178 0 01.177.177v2.107a.178.178 0 11-.355 0V9.085l-3.033 3.034a.177.177 0 01-.126.052zm6.258-4.151H8.657a.178.178 0 01-.177-.178V5.736a.178.178 0 01.356 0v1.677l3.032-3.032a.178.178 0 11.251.251L9.086 7.665h1.678a.178.178 0 010 .356z" fill="#22c3ca" stroke="#22c3ca" stroke-miterlimit="10" stroke-width=".5"></path>
  </symbol>
  <symbol xmlns="http://www.w3.org/2000/svg" viewBox="0 0 48 48" id="arrow-right">
    <circle cx="24" cy="24" r="24" fill="#22c3ca"></circle>
    <path d="M26.171 24.489l-7.075-7.076a2 2 0 012.828-2.828l8.494 8.494a2 2 0 010 2.82l-8.494 8.493a2 2 0 01-2.828-2.828z" fill="#fff"></path>
  </symbol>
  <symbol xmlns="http://www.w3.org/2000/svg" viewBox="0 0 16 16" id="star">
    <path d="M8 12.932L3.056 16 4.3 10.108l-4.3-4 5.715-.574L8 0l2.285 5.537L16 6.111l-4.3 4L12.944 16z" fill="#22c3ca"></path>
  </symbol>
  <symbol xmlns="http://www.w3.org/2000/svg" viewBox="0 0 16 16" id="star-null">
    <g fill="none" stroke-miterlimit="10">
      <path d="M8 12.932L3.056 16 4.3 10.108l-4.3-4 5.715-.574L8 0l2.285 5.537L16 6.111l-4.3 4L12.944 16z"></path>
      <path d="M11.481 13.915l-.88-4.154 3.097-2.876-4.109-.412L8 2.62 6.41 6.473l-4.108.412 3.096 2.876-.879 4.154L8 11.755l3.481 2.16M12.944 16L8 12.932 3.056 16l1.246-5.892L0 6.11l5.715-.574L8 0l2.285 5.537L16 6.111l-4.302 3.997L12.944 16z" fill="#22c3ca"></path>
    </g>
  </symbol>
  <symbol xmlns="http://www.w3.org/2000/svg" viewBox="0 0 40 40" id="instagram">
    <path d="M20 40A20 20 0 015.858 5.859a20 20 0 1128.283 28.283A19.868 19.868 0 0120 40zM14.27 7.5a6.778 6.778 0 00-6.77 6.77v11.459a6.778 6.778 0 006.77 6.771h11.459a6.778 6.778 0 006.771-6.771V14.27a6.778 6.778 0 00-6.771-6.77zM20 26.25A6.25 6.25 0 1126.25 20 6.257 6.257 0 0120 26.25zm0-10.417A4.167 4.167 0 1024.167 20 4.171 4.171 0 0020 15.834zm6.641-1.041a1.433 1.433 0 111.432-1.433 1.434 1.434 0 01-1.432 1.433z"></path>
  </symbol>
  <symbol xmlns="http://www.w3.org/2000/svg" viewBox="0 0 16 19" id="location">
    <path d="M8 19a.411.411 0 01-.266-.1C7.418 18.634 0 12.286 0 7.969a8 8 0 0116 0c0 4.338-7.419 10.666-7.734 10.931A.413.413 0 018 19zM8 1a6.994 6.994 0 00-7 6.972c0 3.439 5.831 8.79 7 9.827 1.168-1.036 7-6.376 7-9.827A6.994 6.994 0 008 1zm.008 10.953A3.977 3.977 0 1112 7.977a3.989 3.989 0 01-3.992 3.976zM8 5a2.988 2.988 0 103 2.988A3 3 0 008 5z" fill="#35424b"></path>
  </symbol>
  <symbol xmlns="http://www.w3.org/2000/svg" viewBox="0 0 40 40" id="vk">
    <path d="M20 40A20 20 0 015.858 5.859a20 20 0 1128.283 28.283A19.869 19.869 0 0120 40zM5.341 13.138c-.647 0-1.048.109-1.193.325a.5.5 0 000 .473l.013.034c.366.709.73 1.434 1.083 2.134.84 1.669 1.708 3.394 2.656 5.037a27.523 27.523 0 003.088 4.3 10.576 10.576 0 006.52 3.777 9.785 9.785 0 001.423.089c.391 0 .788-.014 1.173-.028l.606-.02a.9.9 0 00.911-.886l.043-.372a8.887 8.887 0 01.271-1.572c.207-.688.526-1.036.95-1.036a1.6 1.6 0 01.993.5 9.852 9.852 0 01.8.832 10.149 10.149 0 00.771.81 14.036 14.036 0 002 1.56 2.356 2.356 0 001.2.2h.146c.742.006 1.416.009 2.061.009s1.253 0 1.847-.009h.037c.4 0 1.062-.007 1.32-.379a.874.874 0 00.013-.813 10.633 10.633 0 00-2.4-3.181 78.05 78.05 0 00-.961-.952c-.338-.332-.687-.674-1.025-1.017a1.178 1.178 0 01-.207-1.765 50.46 50.46 0 011.168-1.614c.465-.626.946-1.272 1.383-1.933.515-.779.987-1.606 1.444-2.406.194-.339.394-.689.6-1.032a1.142 1.142 0 01.069-.139c.092-.167.217-.4.106-.584-.138-.234-.6-.348-1.406-.348h-4.73a1.163 1.163 0 00-1.233.825 22.346 22.346 0 01-3.19 5.667 5.693 5.693 0 01-.728.751.9.9 0 01-.564.255c-.257 0-.46-.185-.571-.521a4.825 4.825 0 01-.213-1.487c0-.859.023-1.732.047-2.577v-.007c.012-.434.025-.883.033-1.324a8.266 8.266 0 00-.018-.875c-.071-.834-.372-1.178-1.149-1.313a14.567 14.567 0 00-2.495-.215 15.532 15.532 0 00-2.668.236 1.735 1.735 0 00-1.323.983c1.522.127 1.744 1.188 1.85 2.359a10.782 10.782 0 01-.267 4.1c-.13.447-.386.7-.7.7a.927.927 0 01-.633-.32 8.785 8.785 0 01-1.437-1.813c-.7-1.262-1.392-2.641-2.247-4.474a1.49 1.49 0 00-1.519-.953h-.07c-.366.008-.767.012-1.225.012-.408 0-.823 0-1.224-.006s-.821.003-1.229.003z"></path>
  </symbol>
  <symbol xmlns="http://www.w3.org/2000/svg" viewBox="0 0 40 40" id="facebook">
    <path d="M20 40A20 20 0 015.857 5.858a20 20 0 1128.284 28.284A19.869 19.869 0 0120 40zm-4.166-22.667v3.09H17.6v8.743h3.724v-8.743h2.516l.327-3.09h-2.838v-1.818a.751.751 0 01.788-.84h2v-3l-2.756-.011a3.448 3.448 0 00-3.761 3.67v2z"></path>
  </symbol>
  <symbol xmlns="http://www.w3.org/2000/svg" viewBox="0 0 23.084 27" id="globe">
    <path d="M9.952 27a1.119 1.119 0 010-2.239h2.258v-1.737A13.32 13.32 0 013.9.329 1.119 1.119 0 015.489 1.91a11.095 11.095 0 000 15.688 11.1 11.1 0 0015.686 0 1.119 1.119 0 111.582 1.584 13.276 13.276 0 01-8.307 3.842v1.737h2.26a1.119 1.119 0 110 2.239z" fill="#22c3ca"></path>
    <path d="M12.975 19.211a9.605 9.605 0 119.608-9.6 9.615 9.615 0 01-9.608 9.6zm0-16.973a7.368 7.368 0 107.37 7.368 7.375 7.375 0 00-7.37-7.369z" fill="#22c3ca"></path>
  </symbol>
  <symbol xmlns="http://www.w3.org/2000/svg" viewBox="0 0 32 32" id="phone">
    <path d="M16 32a16 16 0 1116-16 16.018 16.018 0 01-16 16zM16 .711A15.289 15.289 0 1031.288 16 15.307 15.307 0 0016 .711z" fill="#22c3ca"></path>
    <g fill="#22c3ca">
      <path d="M20.617 24.103a12.625 12.625 0 01-8.731-3.9 12.608 12.608 0 01-3.945-9.009v-.118l.073-.092a8.215 8.215 0 013.558-2.632.935.935 0 01.336-.058c.379 0 1 .2 1.13.566.383 1.06.869 2.45 1.225 3.8a1.388 1.388 0 01-.37 1.234l-1.258.8a.315.315 0 00-.132.218.982.982 0 00.205.723 18.031 18.031 0 001.712 1.998 17.854 17.854 0 002 1.7 1.078 1.078 0 00.611.21.37.37 0 00.327-.133l.8-1.264c.247-.385 1.011-.39 1.019-.39a.984.984 0 01.2.018 17.6 17.6 0 013.838 1.238 1.378 1.378 0 01.482 1.457 8.3 8.3 0 01-1.886 2.895 8.674 8.674 0 01-.752.661l-.093.073-.348.005zM11.908 9.005a.273.273 0 00-.077.008 7.638 7.638 0 00-2.648 1.724 7.92 7.92 0 00-.53.594 11.854 11.854 0 003.688 8.323l.052.053a11.906 11.906 0 008.224 3.687h.1a7.452 7.452 0 00.6-.532 7.593 7.593 0 001.717-2.643.891.891 0 00-.154-.579 17.168 17.168 0 00-3.657-1.165h-.024a1.021 1.021 0 00-.47.1l-.765 1.22a1.085 1.085 0 01-.949.458 1.725 1.725 0 01-1.012-.338 18.554 18.554 0 01-2.08-1.773 18.748 18.748 0 01-1.79-2.095 1.681 1.681 0 01-.328-1.279 1.01 1.01 0 01.452-.683l1.256-.8a1.455 1.455 0 00.062-.452c-.342-1.3-.823-2.676-1.2-3.734a.426.426 0 01-.087-.018 1.4 1.4 0 00-.38-.076zm11.794 7.193a.356.356 0 01-.356-.356 7.239 7.239 0 00-7.23-7.233.356.356 0 010-.711 7.95 7.95 0 017.944 7.94.356.356 0 01-.356.356"></path>
      <path d="M21.473 16.194a.356.356 0 01-.356-.356 5.008 5.008 0 00-5-5 .356.356 0 01-.002-.712 5.719 5.719 0 015.713 5.712.356.356 0 01-.356.356"></path>
      <path d="M19.125 16.194a.356.356 0 01-.356-.356 2.657 2.657 0 00-2.654-2.654.356.356 0 010-.711 3.37 3.37 0 013.366 3.365.356.356 0 01-.356.356"></path>
    </g>
  </symbol>
  <symbol xmlns="http://www.w3.org/2000/svg" viewBox="0 0 18.828 10.828" id="arrow-down">
    <path d="M1.414 1.414l8 8 8-8" fill="none" stroke="#22c3ca" stroke-linecap="round" stroke-miterlimit="10" stroke-width="2"></path>
  </symbol>
  <symbol fill="none" xmlns="http://www.w3.org/2000/svg" viewBox="0 0 16 16" id="visa">
    <path fill-rule="evenodd" clip-rule="evenodd" d="M3.782 2.36a7.122 7.122 0 00-1.788 1.955l-.345.559h1.904l.076-.266a9.722 9.722 0 01.698-1.788l1.03-1.582L3.782 2.36zm3.217-1.167c-.961.476-1.809 1.642-2.326 3.199l-.16.482h3.015V.93l-.529.263zm1.472 3.681h3.014l-.16-.482C10.809 2.835 9.961 1.669 9 1.193L8.471.93v3.944zm3.196-2.061c.282.546.519 1.149.703 1.795l.075.266h1.896l-.33-.554a5.164 5.164 0 00-.132-.213 21.22 21.22 0 00-.396-.539 17.04 17.04 0 00-.231-.264c-.069-.078-.139-.158-.215-.234l-.215-.206a7.627 7.627 0 00-.273-.249 15.526 15.526 0 00-.279-.219l-1.559-1.023.956 1.44zM1.216 6.086a7.354 7.354 0 00-.162.713l-.021.141C.973 7.322.945 7.669.945 8c0 .335.028.681.088 1.058l.02.133c.044.256.099.494.162.722l.075.268h2.058l-.056-.416a13.06 13.06 0 010-3.531l.057-.416H1.291l-.075.268zm3.045.043a12.213 12.213 0 000 3.742l.047.31h3.22V5.818h-3.22l-.047.311zm4.21 4.052h3.219l.048-.31a12.41 12.41 0 000-3.743l-.048-.31H8.471v4.363zm4.236-3.947a13.25 13.25 0 010 3.531l-.057.416h2.059l.075-.267a7.51 7.51 0 00.163-.718l.02-.134c.06-.381.088-.729.088-1.062 0-.335-.028-.683-.088-1.064l-.018-.122a7.636 7.636 0 00-.165-.728l-.075-.268H12.65l.057.416zM1.994 11.683a7.098 7.098 0 001.788 1.957l1.386.837-.841-1.297a9.73 9.73 0 01-.698-1.789l-.076-.266H1.649l.345.558zm10.375-.292a9.694 9.694 0 01-.702 1.797l-1.117 1.531 1.664-1.071c.026-.021.274-.212.335-.264.079-.066.155-.138.232-.209.15-.141.205-.191.256-.244.076-.076.148-.158.219-.24l.218-.248a14.918 14.918 0 00.404-.549c.048-.072.092-.144.134-.217l.325-.552h-1.892l-.076.266zm-7.696.216c.516 1.558 1.364 2.725 2.326 3.201l.529.262v-3.945H4.512l.161.482zm3.798 3.463l.53-.263c.961-.477 1.808-1.643 2.324-3.2l.16-.482H8.471v3.945zM8 16c-3.248 0-6.236-2.038-7.435-5.072l-.053-.127a10.074 10.074 0 01-.203-.625l-.029-.11a9.44 9.44 0 01-.138-.588c-.014-.074-.064-.421-.064-.421a5.341 5.341 0 01-.04-.302A7.902 7.902 0 010 8c0-.253.014-.505.038-.757.01-.105.026-.211.043-.315 0 0 .047-.332.061-.402.035-.187.08-.369.127-.55l.04-.153c.055-.193.121-.391.193-.588l.053-.127C1.767 2.051 4.76 0 8 0c3.245 0 6.233 2.035 7.433 5.065l.048.122c.086.232.155.443.216.657l.025.1c.053.198.101.391.137.589l.057.368c.017.115.035.23.046.348.024.248.038.499.038.751s-.014.503-.038.753c-.011.122-.03.242-.049.361l-.056.364a6.97 6.97 0 01-.134.574l-.027.109c-.06.209-.129.42-.207.628C14.308 13.905 11.299 16 8 16z" fill="#35424B"></path>
  </symbol>
  <symbol xmlns="http://www.w3.org/2000/svg" viewBox="0 0 203.089 203.089" id="plane" fill="#35424B">
    <path d="M196.162 6.689c-9.287-9.285-24.777-8.851-34.602.972l-33.63 35.953L21.226 11.673 3.214 29.685a5.053 5.053 0 000 7.147l86.517 47.617-33.98 36.866c-3.051 3.051-5.405 6.437-7.052 9.876l-36.112-9.347-11.232 11.233a3.812 3.812 0 000 5.39l39.743 20.161 3.6 3.597 20.163 39.745a3.813 3.813 0 005.392.004l11.231-11.231-9.51-36.747c3.329-1.64 6.604-3.937 9.563-6.895l37.003-34.115 47.954 87.124a5.053 5.053 0 007.147.002l18.01-18.012-32.152-107.426 35.691-33.385c9.82-9.825 10.255-25.317.972-34.6z"></path>
  </symbol>
  <symbol xmlns="http://www.w3.org/2000/svg" viewBox="0 0 512 512" id="train" fill="#35424B">
    <path d="M453.968 339.946V226.37h-42.221v-72.049h.821l43.011-43.012-15.77-63.085H307.676l-15.772 63.085 43.011 43.012h.821v72.049h-131.8V110.837h28.484v-30H0v318.074h24.231c1.722-48.889 42.023-88.132 91.325-88.132 31.792 0 59.839 16.321 76.217 41.021 16.377-24.7 44.425-41.021 76.217-41.021 49.301 0 89.603 39.243 91.325 88.132h24.846v64.865H512v-56.127zM173.936 176.063v50.307h-78.71v-50.307z"></path>
    <path d="M267.989 340.778c-28.729 0-52.842 19.737-59.536 46.39h-33.362c-6.694-26.652-30.807-46.39-59.536-46.39-33.904 0-61.389 27.485-61.389 61.389s27.485 61.389 61.389 61.389c28.729 0 52.841-19.737 59.535-46.389h33.362c6.694 26.652 30.807 46.389 59.536 46.389 33.904 0 61.389-27.485 61.389-61.389s-27.483-61.389-61.388-61.389z"></path>
  </symbol>
  <symbol xmlns="http://www.w3.org/2000/svg" viewBox="-20 -180 640 640" id="bus" fill="#35424B">
    <path d="M595.5 97.332l-30.898-68.2c-11.141-24.222-35.344-39.76-62.004-39.8H59.3C26.563-10.633.035 15.895 0 48.637v148.195c0 17.95 14.55 32.5 32.5 32.5H81c4.734 23.309 25.219 40.05 49 40.05s44.266-16.741 49-40.05h242c4.734 23.309 25.219 40.05 49 40.05s44.266-16.741 49-40.05h53.203c12.348-.004 23.219-8.148 26.7-20a28.77 28.77 0 001.097-7.797v-83.5a50.006 50.006 0 00-4.5-20.703zm-545.5 12c-5.523 0-10-4.477-10-10v-80c0-5.52 4.477-10 10-10h70c5.523 0 10 4.48 10 10v80c0 5.523-4.477 10-10 10zm80 140c-16.566 0-30-13.43-30-30 0-16.566 13.434-30 30-30s30 13.434 30 30c-.047 16.55-13.453 29.953-30 30zm110-150c0 5.523-4.477 10-10 10h-70c-5.523 0-10-4.477-10-10v-80c0-5.52 4.477-10 10-10h70c5.523 0 10 4.48 10 10zm110 0c0 5.523-4.477 10-10 10h-70c-5.523 0-10-4.477-10-10v-80c0-5.52 4.477-10 10-10h70c5.523 0 10 4.48 10 10zm30 10c-5.523 0-10-4.477-10-10v-80c0-5.52 4.477-10 10-10h70c5.523 0 10 4.48 10 10v80c0 5.523-4.477 10-10 10zm90 140c-16.566 0-30-13.43-30-30 0-16.566 13.434-30 30-30s30 13.434 30 30c-.047 16.55-13.453 29.953-30 30zm19.2-140a10.099 10.099 0 01-9.2-10V19.246c0-5.473 4.438-9.914 9.914-9.914h12.684a48.391 48.391 0 0143.804 28.102l30.899 68.199a29.186 29.186 0 012.601 11.297zm0 0"></path>
  </symbol>
  <symbol fill="none" xmlns="http://www.w3.org/2000/svg" viewBox="0 0 16 16" id="item-calendar">
    <path fill-rule="evenodd" clip-rule="evenodd" d="M11 0v1H5V0H4v1H0v15h16V1h-4V0h-1zm1 4V2h3v13H1V2h3v2h1V2h6v2h1z" fill="#22C3CA"></path>
  </symbol>
  <symbol fill="none" xmlns="http://www.w3.org/2000/svg" viewBox="0 0 13 21" id="slider-arrow-prev">
    <path fill-rule="evenodd" clip-rule="evenodd" d="M4.83 10.489l7.075-7.076A1.998 1.998 0 0011.9.59 1.992 1.992 0 009.076.585L.582 9.079A1.985 1.985 0 000 10.487a1.977 1.977 0 00.582 1.412l8.494 8.493a1.998 1.998 0 002.824-.004 1.992 1.992 0 00.005-2.824l-7.076-7.075z" fill="#fff"></path>
  </symbol>
</svg>